<?xml version="1.0" standalone="no"?>
<!DOCTYPE svg PUBLIC "-//W3C//DTD SVG 20010904//EN"
 "http://www.w3.org/TR/2001/REC-SVG-20010904/DTD/svg10.dtd">
<svg version="1.0" xmlns="http://www.w3.org/2000/svg"
 width="225.000000pt" height="225.000000pt" viewBox="0 0 225.000000 225.000000"
 preserveAspectRatio="xMidYMid meet">

<g transform="translate(0.000000,225.000000) scale(0.100000,-0.100000)"
fill="#000000" stroke="none">
<path d="M160 1820 l0 -270 270 0 270 0 0 270 0 270 -270 0 -270 0 0 -270z
m460 0 l0 -190 -190 0 -189 0 -3 191 c-2 105 -2 191 -1 192 1 1 87 1 192 -1
l191 -3 0 -189z"/>
<path d="M310 1825 l0 -115 115 0 115 0 0 115 0 115 -115 0 -115 0 0 -115z"/>
<path d="M780 1975 l0 -115 35 0 c34 0 35 1 35 40 l0 40 40 0 40 0 0 -75 0
-75 40 0 c39 0 40 1 40 35 0 33 2 35 35 35 34 0 35 1 35 40 0 39 -1 40 -35 40
-34 0 -35 1 -35 40 0 39 1 40 35 40 33 0 35 2 35 35 0 33 -2 35 -35 35 -33 0
-35 -2 -35 -35 l0 -35 -80 0 -80 0 0 35 c0 33 -2 35 -35 35 l-35 0 0 -115z"/>
<path d="M1170 2055 c0 -33 2 -35 35 -35 34 0 35 -1 35 -40 0 -39 -1 -40 -35
-40 l-35 0 0 -75 0 -75 35 0 35 0 0 75 0 75 40 0 40 0 0 -41 0 -40 38 3 c35 3
37 5 40 41 3 35 5 37 38 37 33 0 34 1 34 40 0 39 -1 40 -35 40 -34 0 -35 -1
-35 -40 l0 -40 -40 0 -40 0 0 40 0 40 -40 0 c-39 0 -40 1 -40 35 0 33 -2 35
-35 35 -33 0 -35 -2 -35 -35z"/>
<path d="M1550 1820 l0 -270 270 0 270 0 0 270 0 270 -270 0 -270 0 0 -270z
m462 1 l-3 -191 -189 0 -190 0 0 190 0 190 188 2 c103 2 189 2 192 1 3 0 4
-87 2 -192z"/>
<path d="M1710 1825 l0 -115 115 0 115 0 0 115 0 115 -115 0 -115 0 0 -115z"/>
<path d="M1400 1705 l0 -155 35 0 35 0 0 155 0 155 -35 0 -35 0 0 -155z"/>
<path d="M780 1745 c0 -33 2 -35 33 -35 42 0 44 -2 39 -45 -4 -32 -7 -35 -38
-35 -33 0 -34 -1 -34 -40 0 -39 1 -40 35 -40 34 0 35 1 35 40 l0 40 40 0 40 0
0 -40 0 -40 40 0 40 0 0 40 c0 39 1 40 34 40 33 0 35 2 38 38 3 35 5 37 41 40
35 3 37 5 37 38 l0 34 -75 0 -75 0 0 -35 c0 -34 -1 -35 -40 -35 -39 0 -40 1
-40 35 l0 35 -75 0 -75 0 0 -35z"/>
<path d="M1170 1670 c0 -39 1 -40 35 -40 34 0 35 -1 35 -40 0 -39 -1 -40 -35
-40 -33 0 -35 -2 -35 -35 0 -33 2 -35 35 -35 33 0 35 2 35 35 0 34 1 35 40 35
l40 0 0 40 0 40 -40 0 -40 0 0 40 c0 39 -1 40 -35 40 -34 0 -35 -1 -35 -40z"/>
<path d="M1090 1590 c0 -39 1 -40 35 -40 34 0 35 1 35 40 0 39 -1 40 -35 40
-34 0 -35 -1 -35 -40z"/>
<path d="M160 1395 l0 -75 35 0 c34 0 35 -1 35 -40 0 -39 -1 -40 -35 -40 l-35
0 0 -230 0 -230 35 0 35 0 0 75 0 75 40 0 40 0 0 -75 0 -75 40 0 40 0 0 75 0
75 40 0 40 0 0 -41 c0 -41 0 -41 35 -37 35 4 35 4 35 -34 l0 -38 80 0 80 0 0
35 c0 33 2 35 35 35 l35 0 0 81 0 80 41 -3 41 -3 0 -75 0 -75 -36 -3 -36 -3 0
-230 0 -229 75 0 75 0 0 -80 0 -80 -75 0 -75 0 0 -35 0 -35 75 0 75 0 0 35 c0
34 1 35 40 35 l40 0 0 40 c0 39 1 40 35 40 l34 0 3 78 3 77 38 3 c35 3 37 5
37 38 l0 34 -75 0 -75 0 0 40 c0 39 1 40 34 40 33 0 35 2 38 38 l3 37 78 3 77
3 0 39 0 40 80 0 80 0 0 -80 0 -80 -118 0 -118 0 4 -40 c4 -38 6 -40 38 -40
l34 0 0 -75 0 -75 -35 0 c-34 0 -35 -1 -35 -40 0 -39 1 -40 35 -40 34 0 35 -1
35 -40 l0 -40 40 0 40 0 0 40 0 40 115 0 115 0 0 40 0 40 40 0 40 0 0 40 0 40
75 0 75 0 0 190 0 190 -35 0 c-34 0 -35 1 -35 40 l0 40 40 0 40 0 0 -41 c0
-41 0 -41 35 -37 l35 4 0 -78 0 -78 80 0 80 0 0 -40 0 -40 -40 0 -40 0 0 -40
0 -40 75 0 75 0 0 80 0 80 -35 0 -35 0 0 75 0 75 35 0 35 0 0 80 0 80 -35 0
c-33 0 -35 2 -35 34 0 32 -2 34 -40 38 l-40 4 0 -38 0 -38 -80 0 -80 0 0 35
c0 33 -2 35 -35 35 l-35 0 0 -75 0 -75 -40 0 -40 0 0 40 0 40 -40 0 c-39 0
-40 1 -40 35 l0 34 -77 3 -76 3 0 40 c0 39 1 40 36 43 l37 3 0 75 0 74 -37 0
-38 0 3 75 4 75 -81 0 -81 0 0 -37 c0 -37 -1 -38 -37 -37 -36 1 -38 3 -41 37
-3 35 -5 37 -38 37 l-34 0 0 -155 0 -155 -80 0 -80 0 0 80 0 80 41 0 40 0 -3
38 c-3 35 -5 37 -38 37 -33 1 -35 3 -38 38 l-3 37 -270 0 -269 0 0 -35 c0 -34
1 -35 40 -35 l40 0 0 -80 0 -80 -80 0 -80 0 0 40 0 40 41 0 40 0 -3 38 -3 37
-75 1 -75 1 -3 37 c-3 34 -5 36 -38 36 l-34 0 0 -75z m620 -75 l0 -80 -40 0
c-39 0 -40 -1 -40 -34 0 -33 2 -35 38 -38 36 -3 37 -4 37 -43 0 -39 -1 -40
-37 -43 -36 -3 -38 -5 -38 -38 0 -33 -1 -34 -40 -34 l-40 0 0 -40 0 -40 40 0
40 0 0 -40 0 -40 -40 0 -40 0 0 40 0 40 -40 0 -40 0 0 40 0 40 -155 0 -155 0
0 40 0 40 40 0 40 0 0 40 0 41 78 -3 77 -3 3 -37 c3 -36 5 -38 38 -38 l34 0 0
75 0 75 80 0 80 0 0 40 0 40 -40 0 -40 0 0 40 0 40 80 0 80 0 0 -80z m460
-115 c0 -34 1 -35 40 -35 l40 0 0 -121 0 -120 38 3 c35 3 37 5 37 38 1 34 2
35 43 38 l42 3 0 -40 0 -41 -40 0 -40 0 0 -40 0 -40 -154 0 -155 0 -3 -37 -3
-38 -77 -3 -78 -3 0 161 0 160 115 0 115 0 0 75 0 75 40 0 c39 0 40 -1 40 -35z
m390 -315 l0 -40 -40 0 -40 0 0 40 0 40 40 0 40 0 0 -40z m390 0 l0 -40 -40 0
-40 0 0 40 0 40 40 0 40 0 0 -40z m-310 -230 l0 -120 -120 0 -120 0 0 120 0
120 120 0 120 0 0 -120z m-700 0 l0 -40 -80 0 -80 0 0 40 0 40 80 0 80 0 0
-40z m0 -160 l0 -40 -40 0 -40 0 0 40 0 40 40 0 40 0 0 -40z m540 -70 l0 -40
-77 0 -78 0 2 37 c1 21 2 39 2 41 1 1 35 2 76 2 l75 0 0 -40z"/>
<path d="M620 1125 c0 -34 1 -35 40 -35 39 0 40 1 40 35 0 34 -1 35 -40 35
-39 0 -40 -1 -40 -35z"/>
<path d="M540 1045 c0 -34 1 -35 40 -35 39 0 40 1 40 35 0 34 -1 35 -40 35
-39 0 -40 -1 -40 -35z"/>
<path d="M1010 930 l0 -80 35 0 c34 0 35 1 35 40 l0 40 80 0 80 0 0 40 0 40
-115 0 -115 0 0 -80z"/>
<path d="M1550 660 l0 -40 40 0 40 0 0 40 0 40 -40 0 -40 0 0 -40z"/>
<path d="M1480 1395 l0 -75 35 0 c34 0 35 -1 35 -40 l0 -40 40 0 c39 0 40 -1
40 -35 0 -34 1 -35 40 -35 l40 0 0 75 0 75 40 0 40 0 0 -75 0 -74 113 -3 112
-3 3 -37 c3 -36 5 -38 38 -38 l34 0 0 115 0 115 -35 0 c-34 0 -35 1 -35 40 0
39 1 40 35 40 33 0 35 2 35 35 l0 35 -115 0 -115 0 0 -37 c0 -37 -1 -38 -37
-37 -36 1 -38 3 -41 37 -3 35 -5 37 -37 37 -32 0 -34 -2 -37 -37 -3 -37 -4
-38 -40 -35 l-38 4 0 -41 0 -41 -40 0 -40 0 0 75 0 75 -35 0 -35 0 0 -75z
m540 -115 l0 -40 -80 0 -80 0 0 40 0 40 80 0 80 0 0 -40z"/>
<path d="M1550 1125 c0 -34 1 -35 40 -35 39 0 40 1 40 35 0 34 -1 35 -40 35
-39 0 -40 -1 -40 -35z"/>
<path d="M160 430 l0 -270 270 0 270 0 0 270 0 270 -270 0 -270 0 0 -270z
m460 0 l0 -189 -191 -3 c-105 -2 -191 -2 -192 -1 -1 1 -1 87 1 192 l3 191 189
0 190 0 0 -190z"/>
<path d="M310 425 l0 -115 115 0 115 0 0 115 0 115 -115 0 -115 0 0 -115z"/>
<path d="M1940 425 l0 -35 -115 0 -115 0 0 -40 0 -40 -40 0 -40 0 0 -40 0 -40
75 0 75 0 0 40 c0 40 0 40 39 40 39 0 40 -1 43 -37 l3 -38 78 -3 77 -3 0 -34
c0 -33 2 -35 35 -35 l35 0 0 150 0 150 -75 0 -75 0 0 -35z"/>
<path d="M1090 195 c0 -33 2 -35 35 -35 33 0 35 2 35 35 0 33 -2 35 -35 35
-33 0 -35 -2 -35 -35z"/>
<path d="M1400 195 l0 -35 75 0 75 0 0 35 0 35 -75 0 -75 0 0 -35z"/>
<path d="M1790 195 c0 -33 2 -35 35 -35 33 0 35 2 35 35 0 33 -2 35 -35 35
-33 0 -35 -2 -35 -35z"/>
</g>
</svg>
